# xmcd
#
# Track frame offsets: 
#        150
#        23413
#        49438
#        63870
#        70284
#        86097
#        123081
#        137703
#        161181
#
# Disc length: 2362 seconds
#
# Revision: 0
# Processed by: cddbd v1.5.2PL0 Copyright (c) Steve Scherf et al.
# Submitted via: ExactAudioCopy v1.3
#
DISCID=78093809
DTITLE=Livin' Blues - Blue Breeze
DYEAR=1900
DGENRE=
TTITLE0=Blue Breeze
TTITLE1=Pick Up On My Mojo
TTITLE2=That Night
TTITLE3=Black Jack Dilly
TTITLE4=Shylina
TTITLE5=Back Stage
TTITLE6=Midnight Blues
TTITLE7=Pisces
TTITLE8=Bus 29
EXTD=
EXTT0=
EXTT1=
EXTT2=
EXTT3=
EXTT4=
EXTT5=
EXTT6=
EXTT7=
EXTT8=
PLAYORDER=
